<?xml version="1.0" standalone="no"?>
<!DOCTYPE svg PUBLIC "-//W3C//DTD SVG 20010904//EN"
 "http://www.w3.org/TR/2001/REC-SVG-20010904/DTD/svg10.dtd">
<svg version="1.0" xmlns="http://www.w3.org/2000/svg"
 width="512.000000pt" height="512.000000pt" viewBox="0 0 512.000000 512.000000"
 preserveAspectRatio="xMidYMid meet">

<g transform="translate(0.000000,512.000000) scale(0.100000,-0.100000)"
fill="#797979" stroke="none">
<path d="M1200 4580 l0 -450 -600 0 -600 0 0 -1650 0 -1650 150 0 150 0 0
-365 c0 -201 2 -365 5 -365 3 0 251 164 553 365 l547 365 1247 0 1248 0 0 380
c0 209 2 380 5 380 3 0 204 -133 448 -295 l442 -295 3 365 2 365 160 0 160 0
0 1650 0 1650 -1960 0 -1960 0 0 -450z m3620 -1200 l0 -1350 -160 0 -160 0 -2
-235 -3 -235 -297 198 -297 197 -1 1088 0 1087 -1200 0 -1200 0 0 300 0 300
1660 0 1660 0 0 -1350z m-1220 -900 l0 -1350 -1145 0 -1144 0 -353 -235 -353
-235 -3 235 -2 235 -150 0 -150 0 0 1350 0 1350 1650 0 1650 0 0 -1350z"/>
<path d="M1800 3080 l0 -150 150 0 150 0 0 150 0 150 -150 0 -150 0 0 -150z"/>
<path d="M1500 2480 l0 -150 150 0 150 0 0 -150 0 -150 -150 0 -150 0 0 -150
0 -150 450 0 450 0 0 150 0 150 -150 0 -150 0 0 300 0 300 -300 0 -300 0 0
-150z"/>
</g>
</svg>
